<svg width="829" height="160" viewBox="0 0 829 160" fill="none" xmlns="http://www.w3.org/2000/svg">
<path fill-rule="evenodd" clip-rule="evenodd" d="M79.8688 0C69.6056 8.73546 51.5695 24.8233 29.4999 55C14.2758 75.8166 6.00217 89.6829 0 103.317V39C0 17.4609 17.4609 0 39 0H79.8688ZM156.349 10.2469C131.508 29.978 118.466 41.6773 91.4999 69.5C59.9999 102 56.4999 126.5 64 131C71.4398 135.464 96.0929 121.376 122.361 106.365L122.361 106.365L123 106C136.802 98.1134 156.866 85.4755 169 77.7381V39C169 27.6189 164.125 17.3764 156.349 10.2469ZM169 109.895C156.971 117.247 138.257 128.384 118.5 139C97.0734 150.513 77.32 156.633 60.4741 160H130C151.539 160 169 142.539 169 121V109.895Z" fill="white"/>
<path fill-rule="evenodd" clip-rule="evenodd" d="M95.749 0C82.0397 12.2875 52.8903 40.2869 34.0001 69C9.00007 107 -2.99944 157 38.5002 160C38.5002 160 -10.4505 150.486 38.5002 74C59.202 41.6532 91.0645 12.2826 102.64 1.6123C103.288 1.01544 103.872 0.477086 104.387 0H95.749Z" fill="white"/>
<path d="M169 88C169 88 103 132 72.5 135.5C97 140 169 93.5 169 93.5V88Z" fill="white"/>
<path d="M251.444 41C256.334 41 260.64 41.9521 264.362 43.8563C268.158 45.7606 271.077 48.3972 273.121 51.7662C275.238 55.062 276.296 58.7972 276.296 62.9718C276.296 67.1465 275.238 70.9183 273.121 74.2873C271.077 77.5831 268.158 80.1831 264.362 82.0873C260.64 83.9915 256.334 84.9437 251.444 84.9437H237.759V117.901H229V41H251.444ZM251.444 76.7042C256.261 76.7042 260.093 75.4592 262.939 72.969C265.786 70.4789 267.209 67.1465 267.209 62.9718C267.209 58.7972 265.786 55.4648 262.939 52.9747C260.093 50.4845 256.261 49.2394 251.444 49.2394H237.759V76.7042H251.444Z" fill="white"/>
<path d="M296.498 104.608L328.795 64.0704H335.364V117.901H327.153V77.3634L294.856 117.901H288.287V64.0704H296.498V104.608Z" fill="white"/>
<path d="M375.442 119C370.479 119 365.881 117.792 361.648 115.375C357.487 112.885 354.166 109.515 351.685 105.268C349.203 100.946 347.962 96.1859 347.962 90.9859C347.962 85.7859 349.203 81.062 351.685 76.8141C354.166 72.493 357.487 69.1239 361.648 66.707C365.881 64.2169 370.479 62.9718 375.442 62.9718C381.281 62.9718 386.536 64.5831 391.208 67.8056C395.952 71.0282 399.273 75.4592 401.17 81.0986H392.412C390.806 77.8028 388.471 75.2394 385.405 73.4084C382.34 71.5775 379.019 70.662 375.442 70.662C372.012 70.662 368.837 71.5775 365.917 73.4084C362.998 75.1662 360.699 77.5831 359.02 80.6592C357.341 83.7352 356.502 87.1775 356.502 90.9859C356.502 94.7944 357.341 98.2366 359.02 101.313C360.699 104.389 362.998 106.842 365.917 108.673C368.837 110.431 372.012 111.31 375.442 111.31C379.019 111.31 382.34 110.394 385.405 108.563C388.471 106.732 390.806 104.169 392.412 100.873H401.17C399.273 106.513 395.952 110.944 391.208 114.166C386.536 117.389 381.281 119 375.442 119Z" fill="white"/>
<path d="M429.599 90.5465L456.86 117.901H445.692L420.84 92.6338V117.901H412.629V64.0704H420.84V89.0084L444.488 64.0704H454.998L429.599 90.5465Z" fill="white"/>
<path d="M476.607 101.752L526.969 41H532.443V117.901H523.684V57.1493L473.323 117.901H467.849V41H476.607V101.752Z" fill="white"/>
<path d="M589.403 86.5915V64.0704H597.614V117.901H589.403V94.2817H559.295V117.901H551.084V64.0704H559.295V86.5915H589.403Z" fill="white"/>
<path d="M647.449 89.2282C650.369 90.2535 652.631 91.938 654.237 94.2817C655.843 96.6254 656.646 99.3718 656.646 102.521C656.646 107.062 654.93 110.761 651.5 113.617C648.07 116.473 643.435 117.901 637.596 117.901H614.057V64.0704H635.954C641.501 64.0704 645.88 65.3887 649.092 68.0254C652.303 70.662 653.909 74.1042 653.909 78.3521C653.909 80.5493 653.288 82.6366 652.047 84.6141C650.88 86.5915 649.347 88.1296 647.449 89.2282ZM622.269 71.7606V86.1521H635.625C638.764 86.1521 641.172 85.493 642.851 84.1746C644.53 82.7831 645.369 81.0254 645.369 78.9014C645.369 76.8507 644.53 75.1662 642.851 73.8479C641.245 72.4563 638.946 71.7606 635.954 71.7606H622.269ZM637.596 110.211C640.88 110.211 643.435 109.479 645.26 108.014C647.157 106.549 648.106 104.535 648.106 101.972C648.106 99.3352 647.157 97.2845 645.26 95.8197C643.362 94.3549 640.698 93.6225 637.268 93.6225H622.269V110.211H637.596Z" fill="white"/>
<path d="M692.326 62.9718C697.216 62.9718 701.669 64.107 705.683 66.3775C709.77 68.5746 712.982 71.7239 715.317 75.8254C717.653 79.8535 718.821 84.4676 718.821 89.6676C718.821 91.4254 718.748 92.7803 718.602 93.7324H674.043C674.554 99.0789 676.415 103.363 679.627 106.586C682.911 109.735 687.144 111.31 692.326 111.31C699.917 111.31 705.391 108.197 708.749 101.972H717.507C715.317 107.465 712.069 111.676 707.763 114.606C703.457 117.535 698.311 119 692.326 119C687.29 119 682.692 117.792 678.532 115.375C674.444 112.885 671.233 109.515 668.897 105.268C666.562 101.02 665.394 96.2592 665.394 90.9859C665.394 85.7127 666.562 80.9521 668.897 76.7042C671.233 72.4563 674.444 69.1239 678.532 66.707C682.692 64.2169 687.29 62.9718 692.326 62.9718ZM692.326 70.662C687.509 70.662 683.495 72.0535 680.283 74.8366C677.145 77.6197 675.174 81.4282 674.371 86.262H710.172C709.661 81.5746 707.727 77.8028 704.369 74.9465C701.085 72.0901 697.071 70.662 692.326 70.662Z" fill="white"/>
<path d="M754.564 119C749.601 119 745.002 117.792 740.769 115.375C736.609 112.885 733.288 109.515 730.806 105.268C728.325 100.946 727.084 96.1859 727.084 90.9859C727.084 85.7859 728.325 81.062 730.806 76.8141C733.288 72.493 736.609 69.1239 740.769 66.707C745.002 64.2169 749.601 62.9718 754.564 62.9718C760.403 62.9718 765.658 64.5831 770.329 67.8056C775.073 71.0282 778.394 75.4592 780.292 81.0986H771.533C769.928 77.8028 767.592 75.2394 764.527 73.4084C761.461 71.5775 758.14 70.662 754.564 70.662C751.133 70.662 747.958 71.5775 745.039 73.4084C742.119 75.1662 739.82 77.5831 738.142 80.6592C736.463 83.7352 735.624 87.1775 735.624 90.9859C735.624 94.7944 736.463 98.2366 738.142 101.313C739.82 104.389 742.119 106.842 745.039 108.673C747.958 110.431 751.133 111.31 754.564 111.31C758.14 111.31 761.461 110.394 764.527 108.563C767.592 106.732 769.928 104.169 771.533 100.873H780.292C778.394 106.513 775.073 110.944 770.329 114.166C765.658 117.389 760.403 119 754.564 119Z" fill="white"/>
<path d="M810.388 117.901H802.177V71.7606H783.565V64.0704H829V71.7606H810.388V117.901Z" fill="white"/>
</svg>
