<svg width="142" height="46" viewBox="0 0 142 46" fill="none" xmlns="http://www.w3.org/2000/svg">
<path fill-rule="evenodd" clip-rule="evenodd" d="M32.3908 46C25.9936 44.8244 18.7478 41.6172 11.985 36.5828C7.01083 32.8772 2.95056 28.6733 0 24.4311V31.1906C0 36.4294 -3.23719e-06 39.0489 1.0575 41.0422C1.94527 42.7161 3.35528 44.0961 5.06555 44.965C7.10222 46 9.77861 46 15.1314 46H31.8686C32.0427 46 32.2168 46 32.3908 46ZM47 14.8094C47 9.57056 47 6.95111 45.9425 4.95778C45.0547 3.28389 43.6447 1.90389 41.9344 1.035C39.8978 -3.16832e-06 37.2214 0 31.8686 0H17.3639C22.7167 1.58444 28.4219 4.43389 33.84 8.47167C39.5061 12.6883 44.0103 17.5694 47 22.4122V14.8094ZM1.0575 4.95778C-3.23719e-06 6.95111 0 9.57056 0 14.8094V19.4606C2.585 22.0672 5.66611 24.725 9.09972 27.2933C21.6853 36.6594 34.3753 41.0294 37.4564 37.0683C40.5375 33.1072 32.8347 22.2972 20.2622 12.9439C13.9303 8.22889 7.58527 4.79167 2.42833 3.02834C1.89305 3.60334 1.43611 4.255 1.0575 4.95778Z" fill="white"/>
<path d="M11 0C16.3618 1.61677 21.9852 4.42686 27.2686 8.36613C42.3994 19.6578 49.1213 35.9795 42.2686 44.8075C42.2163 44.8674 42.1683 44.9316 42.1248 45C43.1579 44.3456 44.0602 43.5372 44.7926 42.5877C50.8345 34.7861 44.0472 19.7476 29.6356 8.98204C23.5938 4.47819 17.1596 1.43713 11.3008 0C11.1962 0 11.0959 0 11 0Z" fill="white"/>
<path fill-rule="evenodd" clip-rule="evenodd" d="M65.9053 42H64.013V27.8772H67.3669V35.9222L74.3226 27.8772H76.2148V42H72.874V33.9822L65.9053 42ZM78.6421 27.8772H82.009V32.6391H87.1638V27.8772H90.5307V42H87.1638V35.8815H82.009V42H78.6421V27.8772ZM102.302 34.3484C103.398 35.0539 104.194 36.1664 104.194 37.7808C104.194 39.3138 103.45 40.6026 102.315 41.3352C101.675 41.7694 100.892 42 99.4439 42H92.9711V27.8772H98.2302C99.6396 27.8772 100.397 28.0536 101.049 28.4334C102.354 29.1796 103.072 30.6448 103.072 32.11C103.072 33.0054 102.798 33.7108 102.302 34.3484ZM100.109 38.7033C100.54 38.5134 100.892 38.12 100.892 37.5637C100.892 37.0075 100.566 36.6005 100.109 36.4106C99.9267 36.3427 99.7049 36.302 99.2481 36.302H96.2858V38.8254H99.2612C99.7049 38.8254 99.9137 38.7847 100.109 38.7033ZM96.2858 30.9975V33.3309H98.3477C98.7653 33.3309 98.961 33.3038 99.1437 33.2224C99.5483 33.0596 99.8745 32.6933 99.8745 32.1778C99.8745 31.6758 99.5613 31.296 99.1437 31.1196C98.9741 31.0382 98.7783 30.9975 98.3477 30.9975H96.2858ZM105.93 27.8772H115.639V31.0925H109.284V32.7205H114.086V35.8815H109.284V38.7576H115.639V42H105.93V27.8772ZM126.692 35.8815L129.877 36.9125C129.08 39.87 126.484 42 123.312 42C119.41 42 116.461 38.9747 116.461 34.9454C116.461 30.9161 119.397 27.8772 123.325 27.8772C126.34 27.8772 128.937 29.6815 129.863 32.8833L126.692 33.955C126.17 32.2185 125.009 31.106 123.299 31.106C121.211 31.106 119.867 32.7883 119.867 34.9454C119.867 37.116 121.224 38.7576 123.299 38.7576C125.048 38.7576 126.17 37.618 126.692 35.8815ZM130.151 27.8772H142V31.1332H137.746V42H134.379V31.1332H130.151V27.8772ZM68.1238 24.4584H64V4.0407H73.6831C75.3535 4.0407 76.515 4.3663 77.4676 4.99036C79.0597 6.02142 80.1037 7.82577 80.1037 10.1592C80.1037 12.3841 79.0597 14.2292 77.4415 15.2874C76.5019 15.8979 75.3535 16.2371 73.6831 16.2371H68.1238V24.4584ZM68.1238 12.3163H73.135C73.9311 12.3163 74.2965 12.262 74.6358 12.1128C75.4188 11.7872 76.0321 11.136 76.0321 10.1457C76.0321 9.196 75.4449 8.5041 74.6358 8.17851C74.3095 8.04284 73.9441 7.97501 73.122 7.97501H68.1238V12.3163ZM100.436 24.4584H96.3119V11.5159L84.8539 24.4584H82.5832V4.01356H86.694V16.9425L98.178 4.01356H100.436V24.4584ZM122.816 11.0275L118.914 12.3434C118.079 9.5623 116.044 7.8936 113.264 7.8936C109.806 7.8936 107.43 10.6612 107.43 14.2428C107.43 17.648 109.753 20.5512 113.264 20.5512C116.03 20.5512 118.066 18.9097 118.928 16.0336L122.856 17.2953C121.668 21.5823 117.779 24.4584 113.264 24.4584C107.77 24.4584 103.189 20.09 103.189 14.2428C103.189 8.50411 107.561 4 113.264 4C117.636 4 121.485 6.48268 122.816 11.0275ZM135.527 4.01356H140.486L133.296 12.9268L142 24.4584H136.924L129.511 14.3106V24.4584H125.374V4.01356H129.511V11.7601L135.527 4.01356Z" fill="white"/>
</svg>
