<svg width="42" height="42" viewBox="0 0 42 42" fill="none" xmlns="http://www.w3.org/2000/svg">
<path fill-rule="evenodd" clip-rule="evenodd" d="M28.95 42C23.22 40.92 16.755 37.995 10.71 33.405C6.27 30.015 2.625 26.175 0 22.305V28.47C0 33.255 -1.85966e-06 35.655 0.944998 37.47C1.74 39 3 40.26 4.53 41.055C6.345 42 8.745 42 13.53 42H28.47C28.63 42 28.79 42 28.95 42ZM42 13.53C42 8.745 42 6.345 41.055 4.53C40.26 3 39 1.74 37.47 0.944998C35.655 -1.85966e-06 33.255 0 28.47 0H15.51C20.295 1.44 25.395 4.05 30.24 7.725C35.31 11.58 39.33 16.05 42 20.475V13.53ZM0.944998 4.53C-1.85966e-06 6.345 0 8.745 0 13.53V17.76C2.31 20.145 5.055 22.575 8.13 24.915C19.38 33.465 30.72 37.455 33.465 33.84C36.225 30.225 29.34 20.355 18.105 11.805C12.45 7.515 6.78 4.365 2.175 2.76C1.695 3.285 1.275 3.885 0.944998 4.53Z" fill="white"/>
</svg>
